<?xml version="1.0" encoding="utf-8"?>
<!-- Generator: Adobe Illustrator 19.2.1, SVG Export Plug-In . SVG Version: 6.00 Build 0)  -->
<svg version="1.1" id="Layer_1" xmlns="http://www.w3.org/2000/svg" xmlns:xlink="http://www.w3.org/1999/xlink" x="0px" y="0px"
	 viewBox="0 0 463.3 463.3" style="enable-background:new 0 0 463.3 463.3;" xml:space="preserve">
<style type="text/css">
	.st0{fill:none;stroke:#41648C;stroke-width:24;stroke-linecap:round;stroke-miterlimit:10;}
	.st1{fill:none;stroke:#41648C;stroke-width:24;stroke-miterlimit:10;}
</style>
<path class="st0" d="M231.6,14c120.2,0,217.7,97.5,217.7,217.7"/>
<path class="st0" d="M231.6,449.4c-120.2,0-217.7-97.5-217.7-217.7S111.3,14,231.6,14"/>
<path class="st0" d="M449.5,232.4c-0.5,120.2-98.4,217.3-218.6,216.8"/>
<polyline class="st1" points="196.4,170.4 196.4,139.1 266.9,139.1 266.9,170.3 "/>
<path class="st1" d="M139.3,174H324c7.8,0,14,6.3,14,14.1v122.1c0,7.8-6.3,14-14,14H139.3c-7.8,0-14-6.3-14-14V188.1
	C125.3,180.3,131.6,174,139.3,174z"/>
<path class="st1" d="M139.3,174H324c7.8,0,14,6.3,14,14.1v42.1c0,7.8-6.3,14.1-14,14.1H139.3c-7.8,0-14-6.3-14-14.1v-42.1
	C125.3,180.3,131.6,174,139.3,174z"/>
</svg>
