<?xml version="1.0" encoding="utf-8"?>
<!-- Generator: Adobe Illustrator 19.2.1, SVG Export Plug-In . SVG Version: 6.00 Build 0)  -->
<svg version="1.1" id="Layer_1" xmlns="http://www.w3.org/2000/svg" xmlns:xlink="http://www.w3.org/1999/xlink" x="0px" y="0px"
	 viewBox="0 0 463.3 463.3" style="enable-background:new 0 0 463.3 463.3;" xml:space="preserve">
<style type="text/css">
	.st0{fill:none;stroke:#199682;stroke-width:24;stroke-linecap:round;stroke-miterlimit:10;}
	.st1{fill:none;stroke:#199682;stroke-width:24;stroke-linecap:round;stroke-linejoin:round;}
</style>
<path class="st0" d="M231.6,14c120.2,0,217.7,97.5,217.7,217.7"/>
<path class="st0" d="M231.6,449.4c-120.2,0-217.7-97.5-217.7-217.7S111.3,14,231.6,14"/>
<path class="st0" d="M449.5,232.4c-0.5,120.2-98.4,217.3-218.6,216.8"/>
<polyline class="st1" points="159.7,169.5 276.1,121.9 276.1,169.5 "/>
<polyline class="st0" points="303.6,278.2 303.6,341.5 159.7,341.5 159.7,278.2 "/>
<polyline class="st1" points="159.7,278.2 159.7,169.5 303.6,169.5 303.6,278.2 "/>
<line class="st1" x1="195.3" y1="210.7" x2="268.1" y2="210.7"/>
<line class="st1" x1="195.3" y1="248.1" x2="268.1" y2="248.1"/>
</svg>
