<?xml version="1.0" encoding="utf-8"?>
<!-- Generator: Adobe Illustrator 19.2.1, SVG Export Plug-In . SVG Version: 6.00 Build 0)  -->
<svg version="1.1" id="Layer_1" xmlns="http://www.w3.org/2000/svg" xmlns:xlink="http://www.w3.org/1999/xlink" x="0px" y="0px"
	 viewBox="0 0 15439.8 8131.6" style="enable-background:new 0 0 15439.8 8131.6;" xml:space="preserve">
<style type="text/css">
	.st0{fill:none;}
</style>
<g>
	<g>
		<path class="st0" d="M53.8,8234.6c0-2724.6,0-5449.3,0-8178.5c5155.5,0,10313.4,0,15480.1,0c0,2723.1,0,5450.8,0,8178.5
			C10378.1,8234.6,5217.2,8234.6,53.8,8234.6z M1210.3,6508.9c545.2-255,1024.2-479,1512.8-707.4
			c370.8,411.5,672.7,866.3,1080,1303.3c135.9-567.2,258.6-1079.1,384.8-1606c94.6-4.5,178.2-11.5,261.7-11.9
			c385.9-1.7,771.9,0.2,1157.8-3.2c78.6-0.7,157.1-18.3,277.2-33.4c-362-462.2-692.9-884.6-1030.3-1315.4
			c348-439,679.8-857.6,1045.4-1318.7c-206.9,0-354.8,0-522.9,0C4911.5,3298,4435.6,3791,3959,4283.3c-17.2,17.8-41.1,29.6-63.1,42
			c-6.1,3.4-17.5,0.7-25-2.6c-7.1-3.1-12.4-10.5-37.8-33.4c400.2-488.4,801.7-978.2,1219.2-1487.6c-209.3,0-379.3,0-614.2,0
			c-464,465-955.5,957.7-1389.4,1392.5c347.7-430.7,748.7-927.3,1149-1423.1c-121.7-531.4-208.2-1057.9-378.8-1622.5
			c-196.6,254.1-352.9,466.9-520.8,670.1c-172.7,209.1-356.5,408.9-550.1,629.4c-504.5-240.9-984-470-1501-716.9
			c102.9,580.4,278.5,1098.5,318.7,1657.6c-491.2,237.9-964.4,467.1-1485.9,719.8c520.6,263.3,997.2,504.4,1488.4,752.9
			C1450.5,5402.9,1337,5925.6,1210.3,6508.9z M12825.7,5321.4c48.2,21.8,77.2,39,108.6,48.5c423.1,128.9,857.4,182.3,1295.4,130.5
			c460.2-54.5,834.7-266.9,1030-708.9c209.8-474.8,226.3-964.3,37.1-1450.3c-191.6-492.2-662.9-746-1181.1-630.3
			c-186.9,41.7-363.4,129.9-569.8,206.2c0-400.4,0-798.2,0-1195c-339.5,0-651.6,0-971.7,0c0,150.5,0,273.1,0,399.9
			c88.1,22.1,160.5,40.3,251.5,63.2C12825.7,3235.5,12825.7,4278.5,12825.7,5321.4z M12144.2,4983.7c0-101.7,0-186.4,0-271.1
			c-0.1-377.2,6.5-754.5-1.9-1131.5c-10.1-449.1-217-734.9-618.6-841.2c-522.6-138.3-1031.8-58.4-1547.6,117
			c44.6,189.4,85.3,361.8,118.6,503.3c316.9-40.4,611.1-103.4,906.5-108.9c331.6-6.2,455.4,185.1,383.2,553.6
			c-154.6,0-318.1-17.4-476.2,4.2c-218.5,29.9-443.3,62.7-646.9,141.8c-364.8,141.8-532.2,477.5-477,873.6
			c52.6,376.8,307.5,632.4,693.8,685c331.3,45.1,650.1,13.8,937.2-179.9c25.8-17.4,59.9-22.5,96.9-35.8
			c33.9,58.4,62.5,107.7,93.5,161.2c266.9-6.9,529.4,18.8,782.2-37.2c0-142.5,0-258.8,0-376.2
			C12307.5,5022.5,12241.3,5006.8,12144.2,4983.7z M7614.9,3619.1c139-99.3,259.2-214.5,402-281c295.9-137.6,526-13.4,595.5,303.5
			c20,91,26.1,186.5,26.7,280.1c2.7,420.2,1.1,840.4,1.1,1260.5c0,83.4,0,166.9,0,263c251.7,0,477.7,0,713.4,0
			c5.7-45,13.3-77.4,13.4-109.8c0.7-557.4,5.8-1114.8-3.1-1672.1c-2.3-142.9-34.4-289.8-78.6-426.5
			c-87.8-271.7-277.3-447.1-557.3-518.1c-367.6-93.2-713.4-54.2-1028,171.4c-47.6,34.1-96.2,66.8-158,109.7
			c-37.5-90.9-68.8-166.6-102.8-249c-259.6,13.5-512.2,26.6-775.2,40.2c0,141,0,257.6,0,375.3c78.7,28.8,148.3,54.3,236,86.3
			c0,728.9,0,1454.6,0,2191.7c247.5,0,473.4,0,715,0C7614.9,4840.4,7614.9,4251,7614.9,3619.1z"/>
		<path d="M1210.3,6508.9c126.7-583.3,240.3-1106,357.9-1647.4C1077,4613.1,600.3,4372,79.7,4108.7
			c521.5-252.6,994.7-481.8,1485.9-719.8c-40.2-559.1-215.8-1077.2-318.7-1657.6c517,247,996.6,476,1501,716.9
			c193.5-220.5,377.4-420.3,550.1-629.4c167.8-203.2,324.1-416,520.8-670.1c170.6,564.6,257.1,1091.1,378.8,1622.5
			c-400.3,495.9-801.3,992.5-1149,1423.1c433.9-434.9,925.4-927.5,1389.4-1392.5c234.9,0,404.9,0,614.2,0
			C4634.7,3311.2,4233.3,3801,3833,4289.4c25.4,22.9,30.7,30.3,37.8,33.4c7.5,3.2,18.9,6,25,2.6c22-12.4,45.9-24.2,63.1-42
			c476.6-492.3,952.5-985.3,1417.8-1467.1c168.1,0,315.9,0,522.9,0c-365.5,461.1-697.4,879.7-1045.4,1318.7
			c337.5,430.8,668.3,853.2,1030.3,1315.4c-120.1,15-198.6,32.7-277.2,33.4c-385.9,3.4-771.9,1.6-1157.8,3.2
			c-83.6,0.4-167.1,7.4-261.7,11.9c-126.3,526.9-248.9,1038.8-384.8,1606c-407.2-437-709.2-891.7-1080-1303.3
			C2234.5,6030,1755.5,6254,1210.3,6508.9z"/>
		<path d="M12825.7,5321.4c0-1042.9,0-2085.8,0-3136.2c-91-22.9-163.4-41.1-251.5-63.2c0-126.8,0-249.5,0-399.9
			c320.2,0,632.2,0,971.7,0c0,396.8,0,794.7,0,1195c206.4-76.3,382.9-164.5,569.8-206.2c518.2-115.7,989.6,138.1,1181.1,630.3
			c189.1,486,172.7,975.5-37.1,1450.3c-195.3,442-569.8,654.4-1030,708.9c-438,51.8-872.2-1.6-1295.4-130.5
			C12903,5360.3,12873.9,5343.2,12825.7,5321.4z M13556.2,3616.3c0,442.8,0,826.1,0,1236.2c147.5,28,287.3,71.7,428.8,77.9
			c300.2,13.1,531.4-157.6,615.9-444.3c84.3-285.9,81.7-575.9-7.5-859.9c-92.1-293.5-348.1-414.4-630.2-283.6
			C13812.5,3412.5,13683.5,3528.9,13556.2,3616.3z"/>
		<path d="M12144.2,4983.7c97,23.1,163.3,38.8,243.7,58c0,117.4,0,233.7,0,376.2c-252.8,56-515.2,30.4-782.2,37.2
			c-31.1-53.5-59.7-102.9-93.5-161.2c-37.1,13.3-71.1,18.4-96.9,35.8c-287.1,193.7-605.9,225-937.2,179.9
			c-386.2-52.6-641.2-308.2-693.8-685c-55.3-396.2,112.2-731.8,477-873.6c203.6-79.1,428.4-111.9,646.9-141.8
			c158.1-21.6,321.6-4.2,476.2-4.2c72.3-368.5-51.5-559.8-383.2-553.6c-295.3,5.5-589.6,68.5-906.5,108.9
			c-33.4-141.5-74-313.9-118.6-503.3c515.9-175.4,1025.1-255.3,1547.6-117c401.6,106.3,608.4,392.1,618.6,841.2
			c8.5,377,1.9,754.3,1.9,1131.5C12144.2,4797.3,12144.2,4882,12144.2,4983.7z M11412.9,4312c-240.4-48.4-469.6-33.6-686.1,46.8
			c-252,93.6-304,414.6-88.3,547.5c92.5,56.9,227.6,74.7,338.9,64c172.4-16.6,320.6-108.3,435.4-240.8
			C11412.9,4591,11412.9,4456.6,11412.9,4312z"/>
		<path d="M7614.9,3619.1c0,631.8,0,1221.3,0,1825.3c-241.6,0-467.5,0-715,0c0-737.1,0-1462.9,0-2191.7
			c-87.6-32.1-157.3-57.5-236-86.3c0-117.7,0-234.3,0-375.3c263-13.6,515.6-26.7,775.2-40.2c34,82.4,65.3,158.1,102.8,249
			c61.8-42.8,110.4-75.6,158-109.7c314.7-225.6,660.5-264.6,1028-171.4c280,71,469.5,246.4,557.3,518.1
			c44.2,136.7,76.3,283.6,78.6,426.5c8.9,557.2,3.8,1114.7,3.1,1672.1c0,32.4-7.7,64.8-13.4,109.8c-235.7,0-461.7,0-713.4,0
			c0-96.1,0-179.5,0-263c0-420.2,1.6-840.4-1.1-1260.5c-0.6-93.5-6.7-189.1-26.7-280.1c-69.6-316.9-299.6-441.1-595.5-303.5
			C7874,3404.6,7753.9,3519.8,7614.9,3619.1z"/>
		<path class="st0" d="M13556.2,3616.3c127.3-87.4,256.3-203.8,407-273.6c282.2-130.7,538.1-9.9,630.2,283.6
			c89.1,284,91.8,574,7.5,859.9c-84.6,286.7-315.8,457.3-615.9,444.3c-141.5-6.2-281.3-49.9-428.8-77.9
			C13556.2,4442.4,13556.2,4059.2,13556.2,3616.3z"/>
		<path class="st0" d="M11412.9,4312c0,144.6,0,278.9,0,417.5c-114.9,132.6-263,224.2-435.4,240.8c-111.3,10.7-246.4-7.1-338.9-64
			c-215.8-132.8-163.7-453.8,88.3-547.5C10943.3,4278.4,11172.4,4263.7,11412.9,4312z"/>
	</g>
</g>
</svg>
