<?xml version="1.0" encoding="utf-8"?>
<!-- Generator: Adobe Illustrator 19.2.1, SVG Export Plug-In . SVG Version: 6.00 Build 0)  -->
<svg version="1.1" id="Layer_1" xmlns="http://www.w3.org/2000/svg" xmlns:xlink="http://www.w3.org/1999/xlink" x="0px" y="0px"
	 viewBox="0 0 100 100" style="enable-background:new 0 0 100 100;" xml:space="preserve">
<style type="text/css">
	.st0{fill:none;}
</style>
<g>
	<path class="st0" d="M1,101C1,67.7,1,34.3,1,1c33.3,0,66.7,0,100,0c0,33.3,0,66.7,0,100C67.7,101,34.3,101,1,101z M42.9,30.5
		c-4.4-1.3-8.3-2.7-12.3-3.5c-7.5-1.6-15.3-2.3-20.7,4.6C4.6,38.3,6.2,46.2,10,52.7c4.7,8.1,10.1,16.2,16.7,22.7
		c11.7,11.6,25.6,20.2,42.7,21.6c13.8,1.1,20.7-7.4,17-20.7c-3.4-12.5-11.5-21.8-21.5-30.8c-1.3,7.2-2.1,13.8-3.9,20.1
		c-0.7,2.5-3.7,5.8-6,6.1C48.6,72.6,42.1,72,35.3,72C37.8,58.1,40.3,44.7,42.9,30.5z M47.6,19.1c-3.1,17.1-6.1,33.6-9.2,50.5
		c5.6,0,10.3,0.1,14.9,0c3.3-0.1,5-1.9,5.5-5.2c0.9-6.1,2-12.1,3.1-18.2c1.6-9,3.2-17.9,4.8-27.2c5.6,0,10.7,0.3,15.8-0.1
		c1.8-0.1,4.4-1.6,4.9-3C88.9,12.2,89.2,8.3,90,4C70.5,4,51.7,3.9,33,4.2c-1.6,0-4.1,1.8-4.7,3.4c-1.3,3.5-1.6,7.3-2.4,11.5
		C33.4,19.1,40.1,19.1,47.6,19.1z"/>
	<path d="M42.9,30.5c-2.6,14.2-5.1,27.6-7.6,41.5c6.9,0,13.4,0.5,19.7-0.3c2.3-0.3,5.2-3.6,6-6.1c1.8-6.3,2.6-12.9,3.9-20.1
		c10.1,9,18.1,18.3,21.5,30.8c3.7,13.4-3.2,21.9-17,20.7c-17.1-1.4-31-10-42.7-21.6C20.1,68.9,14.7,60.8,10,52.7
		c-3.8-6.5-5.4-14.4-0.1-21.2c5.4-6.9,13.1-6.2,20.7-4.6C34.6,27.8,38.5,29.2,42.9,30.5z"/>
	<path d="M47.6,19.1c-7.5,0-14.3,0-21.7,0c0.8-4.3,1.1-8.1,2.4-11.5c0.6-1.5,3-3.3,4.7-3.4C51.7,3.9,70.5,4,90,4
		c-0.8,4.2-1.1,8.2-2.5,11.8c-0.5,1.5-3.2,2.9-4.9,3C77.5,19.3,72.4,19,66.8,19c-1.7,9.3-3.3,18.2-4.8,27.2
		c-1.1,6.1-2.2,12.1-3.1,18.2c-0.5,3.3-2.2,5.1-5.5,5.2c-4.6,0.1-9.3,0-14.9,0C41.5,52.7,44.5,36.2,47.6,19.1z"/>
</g>
</svg>
